<svg xmlns="http://www.w3.org/2000/svg" viewBox="0 0 720 440">
  <defs><linearGradient id="e" x1="0" y1="1" x2="1" y2="0"><stop stop-color="#dff1d7"/><stop offset="1" stop-color="#a7d5b3"/></linearGradient></defs>
  <rect width="720" height="440" fill="url(#e)"/>
  <path d="M358 320c-6-116 7-191 41-230" fill="none" stroke="#215c3c" stroke-linecap="round" stroke-width="13"/>
  <path d="M388 137c-81 10-118 46-112 108 72 2 111-34 112-108Zm2 69c72-2 110 30 114 92-69 9-107-22-114-92Z" fill="#2a7c50"/>
  <path d="M343 191c-63-3-96-34-98-91 61-5 94 26 98 91Z" fill="#4b9f64"/>
  <circle cx="360" cy="204" r="142" fill="none" stroke="#fff" stroke-width="9" opacity=".7"/>
  <text x="360" y="390" fill="#17472d" font-family="Arial, sans-serif" font-size="34" font-weight="700" text-anchor="middle">VALLE VERDE GARDENS</text>
</svg>
